 <svg class="layout-header-links__cart-icon" width="40" height="40" viewBox="0 0 20 20"
                            xmlns="http://www.w3.org/2000/svg" fill="inherit" stroke="inherit">
                            <path fill-rule="evenodd" clip-rule="evenodd"
                                d="M8.5 4.9V3.3a2 2 0 0 1 2-2h3a2 2 0 0 1 2 2v1.6h4.8V12h-1V5.9H4.7v14H15v1H3.7v-16h4.8zm1-1.6a1 1 0 0 1 1-1h3a1 1 0 0 1 1 1v1.6h-5V3.3z">
                            </path>
                            <path fill-rule="evenodd" clip-rule="evenodd"
                                d="M17.4 23.4v-9h5.4v9l-2.705-2.673L17.4 23.4zm2.694-3.798L22 21.485V15.2h-3.8v6.28l1.894-1.878z">
                            </path>
                            
                        </svg>